<?xml version="1.0" standalone="no"?>
<!DOCTYPE svg PUBLIC "-//W3C//DTD SVG 20010904//EN"
 "http://www.w3.org/TR/2001/REC-SVG-20010904/DTD/svg10.dtd">
<svg version="1.0" xmlns="http://www.w3.org/2000/svg"
 width="800.000000pt" height="800.000000pt" viewBox="0 0 800.000000 800.000000"
 preserveAspectRatio="xMidYMid meet">
<metadata>
Created by potrace 1.11, written by Peter Selinger 2001-2013
</metadata>
<g transform="translate(0.000000,800.000000) scale(0.100000,-0.100000)"
fill="#000000" stroke="none">
<path d="M3668 7475 c-1 -1 -50 -6 -108 -10 -58 -3 -118 -8 -135 -10 -16 -2
-59 -7 -95 -10 -69 -6 -153 -17 -305 -41 -16 -3 -55 -9 -85 -14 -30 -6 -68
-13 -85 -15 -16 -3 -37 -8 -45 -10 -8 -2 -31 -7 -50 -10 -19 -3 -51 -10 -70
-15 -19 -5 -46 -11 -60 -14 -115 -20 -628 -171 -735 -216 -11 -4 -81 -32 -155
-60 -199 -77 -322 -131 -545 -241 -159 -78 -397 -201 -413 -214 -1 -1 -5 -36
-8 -76 -3 -41 -7 -94 -9 -119 -13 -149 -20 -392 -20 -730 0 -517 16 -780 69
-1172 3 -18 8 -55 12 -83 3 -27 8 -59 10 -70 4 -21 11 -63 18 -105 11 -68 19
-113 38 -200 11 -52 21 -102 23 -110 2 -8 10 -46 19 -85 8 -38 25 -106 36
-150 12 -44 23 -87 25 -95 11 -47 71 -240 102 -330 215 -625 507 -1148 900
-1612 79 -93 373 -393 434 -443 13 -11 51 -43 84 -71 61 -52 286 -222 372
-282 43 -29 76 -50 213 -138 227 -145 688 -362 992 -469 l107 -37 148 51 c81
29 153 53 158 55 6 2 19 7 30 11 409 161 693 313 1005 536 85 62 157 115 160
118 3 4 46 41 95 83 186 156 401 383 567 598 64 83 218 308 248 362 8 15 45
81 82 146 125 219 253 506 346 772 37 104 95 287 107 336 3 10 21 78 40 149
19 72 39 153 44 180 6 28 12 59 15 70 8 33 56 275 62 312 3 20 8 45 10 57 2
11 7 41 10 66 3 25 8 53 10 64 2 10 6 44 10 75 3 31 8 58 9 61 2 3 6 39 10 80
4 41 8 82 10 90 3 15 13 117 20 195 20 238 23 283 32 480 8 196 9 763 0 985
-12 298 -18 425 -22 437 -5 16 -289 151 -550 262 -422 180 -1014 378 -1320
442 -69 14 -80 17 -146 33 -63 15 -147 32 -205 42 -16 2 -51 9 -79 14 -93 18
-252 42 -370 56 -27 3 -61 7 -75 9 -14 2 -61 7 -105 10 -44 3 -100 9 -125 11
-49 6 -756 14 -762 9z"/>
</g>
</svg>
